<mxfile host="app.diagrams.net" agent="Mozilla/5.0 (Windows NT 10.0; Win64; x64; rv:132.0) Gecko/20100101 Firefox/132.0" version="24.8.8">
  <diagram name="Page-1" id="ya1zbJqhIhB_EMdU4hZZ">
    <mxGraphModel dx="607" dy="1915" grid="1" gridSize="10" guides="1" tooltips="1" connect="1" arrows="1" fold="1" page="1" pageScale="1" pageWidth="827" pageHeight="1169" math="0" shadow="0">
      <root>
        <mxCell id="0" />
        <mxCell id="1" parent="0" />
        <mxCell id="SCoaGfptBHrO5IWM9Emr-1" value="" style="shape=image;verticalLabelPosition=bottom;labelBackgroundColor=default;verticalAlign=top;aspect=fixed;imageAspect=0;image=data:image/png,iVBORw0KGgoAAAANSUhEUgAAAsUAAAIaCAYAAADIozDiAAAgAElEQVR4Xu2dT8gd13n/51WU2AKF7PRTKsl44aW8K1iyQCs18arIICkGr+qK0oUXskiLskgUORBUKJYW2VU1hNY0iQ0SXQniQBE4tqE7eemC6z8oqKskKvkjo/f3PuM8t+edOTPzPXfOvfPnfi6EWO8998yZ7zx/PueZM2e2/vjHP24XfFAABVAABVAABVAABVBggxXY+t///V+geIMNgFNHARRAARRAARRAARQoiq3/+Z//AYqxBBRAARRAARRAARRAgY1WYOu///u/geKNNgFOHgVQAAVQAAVQAAVQYGt754MMKIACKIACKIACKIACKLDJCpRQ/Ktf/ao4ePBgqw6ff/55+f3evXvX2s4OxvjqkqvXA/3i5op+/XRBP/RzBYjPxGc1HuRuR37rF4fQr64fUNyA+KrzYlQ4pSmg2kvudtgf9of9tde1gHagPXfcVfsjPk8vPgPFQHGpgOrkudsRNKYXNFLshevL9U2xF+JLP3tBP/RL8TfiM5Xi7PCHUfULQuiHfilBnKTfz17QD/1S/I343M9e0G96+lEpplJMpbjBBvzP3H6tC6TCFUlhekkBaGoOCKrdq+3wD/wjxd9Uu1LbYX9UiqkU95wEqM6mtsMpSQokhfZZGZMyJmVqPM3djvhMfN60+EyluCckEjQIGpsWNFLOF//AP1LsBajrZy/oh34p/kZ8plJMpbjnJICgS9Al6HJ7PVSASjaV7Nx5Qe0PqOuXj9AvAsUPHz7cvn//fnHgwIHWe3iqkeZuZ4NifP2CLvqhX26/VPvDf/snLfwX/1X9LXc7/Bf/TSmCzMH+toBijH7TjD7lfEkK+EeKvcwhKaScL/6Bf6TYC/7Rz17Qb/X6saa4oT6uGh+3H/oZKfqh39BJldv//Sqx6Id+ar7M3Y78Qf7InT+AYqC4VCB3sFL7I6gR1LC/hiD0pz8DnUCnGk9ztyM+E583LT4DxUAxUNzOJAVQApTkhg21P6AEKNk0KEk5X/wD/0ixFyXuAsVAMVAMFC8UUIJGShAiaZG0UuwF++tnL+iHfin+Rnyu2wtQDBQDxUAxUHzwYKsV5IYNtT+SVj/IQT/0S4FE1S/Vdtjf9OwPKAaKgWKgGCgGind5AUm/XzJHP/RzBVh+V7eFMfsHUAwUA8VAMVAMFAPFOwrs3bt3rXcMqCT2g2f0Q7/cdwKAYqAYKAaKgWKgGCgGiqORkErntCqdKZDIpKJ+bXl5RwYo5o1T/YIG+qGfejstdztTHvvD/nLbldof9te/0on/4r+qvyntgGKgePBKMUGNoGbBat++fR01e76eugI7b1Bd+/IE4gvxRYGhlAqr2h+TnulNelg+kQGKub3UL+iiH/pZkvnyl79cbG9vT537GH+DAltbW53XV4UNtR23h/tDCfGZ+Kz6W+52Q/gvUAwUD14pJugSdIHi+bM0UBy/xsQ/4l9umFT7GwI6UyryQ4wPKAaKgeIOHiFprSdpUSmeNxgDxUCxCmtquyGgaexQx/ia46hiV0AxUAwUA8ULBZSgsaqgCxQDxUPan6nPlmx1G6QosJ6iAPY3jkkjUAwUA8VAMVA8bx4dxdlRKR5H0l/VpBao4/rOYVILFAPFQDFQDBSPAhvnPQigGGiaAzQxqei3PGHs+gHFQDFQDBQDxfPm0VGcHVAMFAPFcRvIrYvan42G5TG7rwlQDBQDxUAxUDwKbJz3IIBioFiFNbUdUNcPstGvrh8v78gAxWwOXxcxJaihH/r5yzvYp3i+YGxQzMs76teX+Ef8U/Nl7namPPZXqRTvBKltRMEpczub2h9O2X+mPxf/tTfaAcVAsSmQaxcI4gvxxRRQ81Hudtjf9OyP5RMZKsWsyek3qUA/9OPlHfOFYT8zlk+wfGIV0En+IH/ktCugGCguFchpVCn9WVuCGkENKAaKU+KGGq+IL/0rdcRn4rPqb7nbDeG/QDFQDBR38AhJYT1JgZd3zBuMqRRTKZ4DNKVM3oaAOsbXHEcV+wOKgWKgGCheKKAEjVUFXaAYKB7S/kz9XGuZ1fMAmqhkp8RT1a7Udthf3f6AYqAYKAaKgeJ58+gozo5KMZViFdbUdkAdk4rckwqgGCgGioFioHgU2DjvQQDFQLEKu2o7oBgoBop7QqzqbGo7nBKnzO2UKf3Nyf5YPgEUq3FXbTcn/7BzYXlH3Ud45qOuCf6xPJdQKe4J2QTd5Y3Pf0lQI6ix+8S8gdjOjkoxlWIV1tR25F/yb0oRSbEroBgoLhVQjGUV7QhqBDW3KyrF8wZjoBgozp1nyB/kj9xcsnXv3r3tBw8eFPv372+NyI8ePSq/37Nnz1rb2cEYX11y9XqgX9xc0a+fLqvQ79ChQ7zRbsZcbFC8k2/IHxUFyG/kNzWe5m4HH9Rtj0oxlWIqxR0gwvKOukBqxSelkkOleMZEvHNqVIqpFKtxQ22XEl+sLWuy6zZIftutCVAMFAPFQPFCATUZqe1SkhZQDBSrdqW2S7E/oAloV+1KbYf9xW1qzPoBxUAxUAwUA8Xz5tFRnB2VYqBThSG1HdA5Pei0EY/5+gLFQDFQDBQDxaPAxnkPAigGilUYUtsBxUBxCmQrdgUUA8VAMVAMFM+bR0dxdkAxUKxASQrkAMVAcYq9KPYHFAPFQDFQPHoofv7554uTJ08Wr7zySjnW999/vzh27Fjx5ptvFmfOnCn/9tZbbxVXrlwp7t6923hFP/vss+Lw4cPFp59+WthuF7GPwVv42d7eLv/pv33vvffKf9vx/TuFOsPfP/PMM8pPlm6jHst1tPNQf7PsoIBioFiBkhTIAYqB4hR7UewPKAaKgWKgePRQfO3ateLjjz8u7P/tY/9/586d4sknn1z8zYD5iSeeWIBz7LJ2QfHTTz9dvPTSS4s+7DgXL16swW8Ik8tC4hh+t87zAIqBYgVKUiAHKAaKU+xFsT+gGCgGioHi0UOxwdv58+cXVWCrHF+6dCn6N6/ChhVfrww7FF+4cKG4fv16ed5ebW4CZuvH2hw/frysMlul2KrE9jl69OhiTLHjhaYVVmKtH/tfOI7XXnutBuP++7Aibn8Lj2VVXofb06dPF7du3Sor4T5WP5b1b4AfnrP3Y+dx+/btxW9iGtp5299jGoZjb3InoBgoVqAkBXKAYqA4xV4U+9t6+PDh9v3794sDBw60ooHSWe7B+YAYX/3SqNfDfol+6KfaS+52Kfa3b9++1uUIVsU1cLNlD/bftkwi/FsIXWHF15ZVnD17tuzbgc7g8ebNmwuYdGg22DaorEKonUfb8omm4ylQbNXo2Biryzb833asy5cvl8tGvIL+wgsv7FpOEgPw2DnbefsykOryidg5WXv7ONBXx96WROz67OSbteaZFPuztkPsY0t8Jj7njrtqf/hH3faA4oYQjVH1m4GiH/qlTmq7oNiWR5w4caI4cuRI8ZOf/KQEQl8y8eyzzxZXr17dBbrhel8HybDa69XQ6nplB1Qff7WSXF1THFuCEIKr9xMD1WoFO4TO2Lrn2LGsX4fban82Vq8Ue6XXxuPnbLrFoNh/E46hqmFs7E3rtO2YQHE8JgDFQLGaL3O3A4ojULyTOLZ5o0k/p0Q/9MsdrNT+TPm52F/XyzsMVt95551y3bB9DIj9bwbLn3zySfk3B8eqVdot/nPnztUetKtCcfg776sKl9bGYbLteP5goLVXodjAstqng3nTGmD/exsUh4DbBcXh+bke/puqhl3rtP33LJ+IQ/Fc/NfObohKO/qRf9V8qbRjTXE8To16c2kbsnJx/dQIGgQN1V5yt0uB9i4oNvh67rnniqeeeqpcT+zrW+1vp06dKmwJgf2tuv44vPqxHRa8Amrt3njjjbLaHH5iVeYqFIfrnRtCShIUx8ZsUBsud4jBu1op9nOyqvs6K8Vdu3UMaX9AHdCO/cVtILcuan8p+SOX/wLFQHGpgGqkudsNYfQp58v4+gXJFP26oNj6smrlhx9+uGvbNQM8A+UQZsPlC7Fqrz3gZssvqhVWf6gu3ObN1iOHyxpiW7I1HS/cek2tFL/77ru7tpbz3zlQ2hh9KYSdw+uvv17cuHGjhNs2KI6dc581xcssnwCK6/5E0YKiRe68qvaXEp9zQefY8y9QDBQDxU2lvT/9naS1nqSlQLFvxRYCcOxvNuJwh4bquuBw14dwrW31d/bvGGga7Hr/Iay6Ul0P6lXX7FaXINiyC98dw/oMx+ht/Vjh7hNdUOx9hv35eYQ7Vii7TwDFzYEDKOk3mUY/9HMF1p1/gWKgGCgGihcKqMlIbZdSiVCguONS8XVEAXXN76rFY01xXOF1J/2xV+oYX//J1iris41qE9aMA8VAMVAMFAPFqybCAfsHin9VHDx4sPUKqBCRu13KpHFToAQoBopDBdY9aQSKgWKgGCgGigeE1k05NJViKsVMKuI2kFsXtT8mZfXrARQDxUAxUAwUbwqZDnieQDFQrMKa2g6o6wfZ6BeBYt5o19+o2Hy9rmFKUEM/9DN76Xp5x4A8x6EzKMDLO+IiEv+If2q+zN3OlMf+dtsfb7TLUCnGqAhquYOV2t+cghpQnIE8R9wFUAwUq3FNbTen+GfnMsSDbPBLBYp5o13/SvG6F4LbiFOCBuPrB+3otx792H1ixESbYWgsn4iLSHxZT3wZCjq5vtO6vqwpzlApxuinZfRMKpoJR51sqe3sSKp/AMUZyHPEXQDFQLEaN9R2KfEFKMb+FLsCioHiUgHFWFbRjqDGnQq3K6B4xESbYWhAMVCSO8+QP8gfubkEKAaKgeKOhK9WOqlE9Ev6QHEG8hxxF0BxP/8gvqAfk4p+kwBFP6AYKAaKgeKFAkrQSJmZp1RygOIRE22GoQHFQN2Q8YVJBfan2B9QDBQDxUAxUJwB+uiiXQGgGChRoGRVk26gGPtT7A8oBoqBYqAYKIZoV64AUAyUKFACFDe7IvqxfKJUgDWddUNQnQP9+jkR+q1PP5ZPrJxLBz0AUAwUq3lLbUd8Xl983pRKOy/vyFApZvPrftCOfujHG+0G5dW1HJyXd8RlJv4R/9RJQO52pjz2t9v+gGKguFQgt7Op/eGU/Wf6cwlqvNFuLWw62EGAYqBYzQtqO/IH+SM3v7CmOAMUs7yj30wf/dDPkiDLJwbj1bUcmOUTLJ9QYVdtx/KJ/lBM/q1UinnNM0aVe6aV0h9BDftzewGK18Kmgx0EKAaKVdhV25E/yB8pvKHYFZViKsWlAoqxrKIdQY2gBhQPxqlrPTBQDBTnzjPkD/JHbi4BioFioLgDDbi9VBdITW4pSYtK8VoZde0HA4qBYjVuqO1S4ou13bt3b6vdq8dV2zG+6UE7UAwUA8VA8UIBNdir7VKSAlC8dk5d6wGBYqBYjRtqu5T4AhRjf4pdAcVAMVAMFAPFa8XDzTwYUAyUKFBiKqntgOLpVWLHfn2BYqAYKAaKgeLN5NS1njVQDBSrsKu2A4qB4hTIVuwKKAaKgWKgGCheKx5u5sGAYqBYgZIUyAGKgeIUe1HsDygGioFioBgo3kxOXetZA8VAsQIlKZADFAPFKfai2N/WvXv3th88eFDs37+/NUA+evSo/H7Pnj1rbWcHY3x1ydXrgX5xc0W/frqsQr9Dhw6tFdI42PoV2Mk35I+KAuQ38psaT3O3gw/qtkelmEoxlWIqxaOoFNsgNmXLpMuXLxc7L04qXn311U4yZUvAukRKxcd/hX7op9pL7nZUsqdXyQaKgWKgGCgGig8ebLWC3MkSKO6XLNXrAZT00xn90M8UUP0td7sh7A8oBoqBYqAYKAaKd3mBmtyGSFopSZrxAXUp9qLavdoO+5ue/QHFQDFQDBQDxUAxULyjwKYs3wHq+sEa+s1XP6AYKAaKgWKgGCgGioHiaCRkTXZdFqAYKN6oNSUpt1u4PdLPOdAP/VL8TU1Garuh7I81xf3sfuzXl/FxfV0BJhXTmlRQKaZSTKWYSjGVYirFVIqpFFMp/vzzUoNcy2iGmnQzKVt+UgYUA8VAMVAMFAPFQHFGGAJKloeSlDtHQGc/ndGvrt/Ww4cPt+/fv18cOHCgFQ1UJ8/dzgbF+PrdfkA/9Mvtl2p/+G88rF65cqXcp/j73/9+x5SM+BcTCPvrB0Poh36uAHyw2xaA4gyVYowK6FSTTO52QGe/5DaUfkBxv+um+tFQ15fxcX2Bzub5/pj9g+UTGaCYhfT9oBj90E8NkrnbDXX7kAft1gdNxBfiS+64ofY3VHxhfMvHF6AYKC4VUJ0odzuCxvLO678k6U8v6QPF/exejUPEl346ox/6bRofAMVAMVDcfJen/AbonB50jh2agOJ+sDH268v4uL4ULZoT65j9AygGioFioHihgBqs1HZMKuLGBRQDTUDTNKEppXJK/Ovn50PoBxQDxUAxUAwUsyXbLi9g0tMvmaMf+jHpmeakBygGioFioBgoBoqB4h0Fcr20ASgGioFioHglcDVE+ZzbI/2NmaRAUiApNPsRyyfwD/yjf56BD/r5EfrV9aNSTKV4JZMZoLhfsEK/eesHFM/7+uK/XF8mPdOc9PDyjgxQzMs76iKmJAX0Qz/VXnK3M+WHsD9e3rE+aBri+qp2OpT9MT7szxXAP3bbAlAMFA9eKcYpgWI1SeduNxSUAMVACVCSp5JI/iB/5MwLLJ/IAMXsY9vPKdEP/XIGNVNT7c/aDmF/LJ9YHxQPcX3Hbn+MD/tjeUfcBoBioHjwSjFJCyhWk3TudkBxPzgYSj/VDhgf1zdlkqzaldoO+5ue/QHFQDFQ3HwXr/wGaAfa1SSotqNS3C9Zqjrjv/10Rj/027RJBVAMFAPFQPFCARU21HYk1bhxAcX9YAP7Qz9XgKIFRQs1HijtgGKgGCgGioFiXt6xywuU5AGUNAcO9APa8Y9p+gdQDBQDxUAxUAwUA8U7CvBGu3owpBJLJVad5OVuN8SdRqAYKAaKgWKgGCgGioHiaCQEioHi3LCr9gcUN8AJTolTqk6Uu90QTmnHVM+D8fW7TTuUfqwp7nfd8A/0Y3nCNJcnjD2/8fKODJViNg/vB+3oh34q5ORuZ8oPYX+8vGN9UDfE9VXtdCj7Y3zYnyuAf+y2BaAYKB58+QROCRSrSTp3u6GgBCgGSoCSPJVO8gf5I2deYE1xBihmeUc/p0Q/9MsZ1MZ+e87Gx/KJ9UEx8YX4smnxRT3foZaPjXl8QDFQPHilmKRF0lKDZO52QyUFoBgodgWIf8S/3HFN7W+o+Dfm8QHFQDFQ3HwXr/yGpEXSUoO42g4oBoqB4jzLJ4jPxGc17irtgGKgGCgGihcKKEFjCssT1PMYatIDFAPFQDFQ7Aqo8Sp3u6Hin3oeQ4wPKAaKgWKgGChmn+JdXjDmpMWkrD9Mcn2ZlDEpi9sAUAwUA8VAMVAMFAPFOwrwRrt6MGR5AssT1ElU7nZUihvgBKfEKXM7m9rfEE5JJWz+lTCWT1Cpo1LX38+Jz/38CP3q+lEpplJMpZhKMZViKsVUiqkURyMhRSmKUmoRKXe7IaAdKAaKgWKgGCgGioFioBgo/vzzUoNcy2iGgDruNPa7A7F179697QcPHhT79+9vRYNHjx6V3+/Zs2et7exgjK8uuXo90C9urujXTxf066ffP/7jPxbb29vF3/3d33VMyYh/MYGwv372h37o5wrAV7ttgUoxlWIqxVSKqRRTKaZSnLFCqN5GppIYD77o108X9FteP6AYKAaKgWKgGCgGioHiaCRkTXFdFqBzeei0X45ZP6AYKAaKgWKgGCgGioFioJg1xVEbUCE2d7sh7qQAxUAxUAwUA8VAMVAMFAPFQDFQvPOwxza3R7g9knuGp/Y3xExw7LdvGF/zLEW1K7XdUPbHPsXzvf2K/87ff8ceXxjf8vGFSjGVYirFVIqpFFMpplJMpZhKMZViKsVUipefUfgvqbRTaVdn5rnbDVXpVM+D8cXjC5XifnEX+0M/8m//ijzxua4hlWIqxVSKqRRTKaZSTKWYSjGVYirFVIofPny4ff/+/eLAgQOtaKDOzHO3s0Exvn6VWPRDv9x+qfaH/8bD6pUrV8qXd3z/+9/vmJIR/2ICYX/rqxSTP8gfqr/lbjdE/tgCivsFlyEumh1TNT7Gx/VNsRfVrtR22B9QjP21z3uATqBTjae52xGf67bH8omGeKUan/2cNcX9ghr6oZ/qb7nbrdN/f/3rXxdf+9rXyotdXVMcfle1BvwD/8ht92p/6/SP8Cozvn7FHPRbXj+gGCguFVCdKHc7gu7yzuu/BJqmAU1//ud/Xjz11FPFP/zDPxSvv/56uXzir//6r4u///u/L/7rv/6r+M///M+oMXB9p3F9gbqi2Lt3b2tZnPzRL96j3+r1A4qBYqC4NYxzJyAmjxqcmfT8n3pXr14tK8T79u0rnnjiiRKKP/nkk+L3v/99ubb40qVLQDEPOkVtQPW33O3w334Qhn7T0w8oBoqBYqB4oQBJtV8Q79LPgNgg2P7foNj++7HHHiv/v+lDpZhKcZdduUK52wF1/eIB+k1PP6AYKAaKgWKgeE1bslm1+Hvf+16x84BzqfmXv/zl4tVXX22sEpNUp5dUbcQqnHJ9ub4p9qLaldoO+6vbH1AMFAPFQDFQvCYoNqG9Wmz/3VUlJmkBTUBTe4DmTkpdH6B4+bgBFAPFQDFQDBSvEYq9Wmyid1WJgeLlk5v/EmgCmlRIzN0O/52e/wLFQDFQDBQDxWuEYhP78ccfLzVvW0sM1DU7pgovQMn0oCSlMs715fqm2IsSN3h5RwYoZvP1fpUI9EM/JVjlDn6u+hD2F27J1jEn442eEYFUe7GfDnF9GV8/WEM/9BsqPgPFQPHglWKSFlBsSdDW2vKZtwL+gGHTWaowpLYDivvBFfqh3yqKEWP2X5ZPZIBi1qz1gzr0Qz8LkrYTg21TxmeeCmxtbXVeXzVZqu1MSeIL8UW1l9ztsL/+k4p1+y9QDBQPXilet9GnzHwJausLakDxPGHYzwoojl9f4h/QnhvG1f7Ib3XbA4qBYqC4g0VIWutJWkAxUKwmc7UdSX99k1o7Eq95rutN/lhP/shlf0AxUAwUA8ULBVTYUNulQAlQDBSrdqW2S7G/XEmVO1HNdqxeN7Ud15dJT4q/KXYFFAPFQDFQDBTPm0dHcXYsn4hfBiqJ06okpkAY0D49aAeKgWKgGCgGikeBjfMeBFAMFCuVOqCTSnuowLonjUAxUAwUA8VA8bx5dBRnBxQDxUBxv8op+q1eP6AYKAaKgWKgeBTYOO9BAMVAMVC3eqij0t6v0s7LOzJAMS+fqIuoBj/7Jfqhn7+8g32K5wvGBsW8vKN+fYl/xD81X+ZuR/6t2x5QDBQPXikmKZAUgOL5wrCfGVAcv8bEP+JfbthV+wOKI1C8U5nZXvdCZsr7/cr76Id+oQJz8V+2ZJs3GLN8guUTKqyp7UzRucQ/Oxf2ea77yLqvL2uKM1SK133RgGKgGCieN0DO8eyAYqBYhV21HVActyn0W14XoBgoHnz5BJOKfrcP56IfleI5ovD/nRNQDBSrsKa2A4qXhz//5VzyR65KO1AMFAPFHSxC0FgPtAPFQLEKQ2o7oAloSrmzqtqV2g77m579AcVAMVAMFC8UUIO92i4lKQDFQLFqV2q7FPvLVWlKgTDGNz1o4vo2xynVL9V2Q/gHUAwUA8VAMVA8bx4dxdmxfCJ+GbgTtZ47UUx6sD8FxoFioBgoBoqB4lFg47wHARQDJQqUUImddyV27NcXKAaKgWKgeGOh+P333y+OHTtWs4DXXnuteOWVVxot47PPPisOHz5cfPrpp8WhQ4d60azBYvjxF5jkPIb37+c7xEtSgGKgGCiO20BuXdT+bDTcqdh9TYBioBgoBoo3Fopjl/7pp58ubt++3Qq7uYDVjvXSSy8tAPzatWvFxYsXC4PWXMcIzxEoBkrGXqljfFSKQwXWDe1b9+7d237w4EGxf//+VjR49OhR+f2ePXvW2s4OxvjqkqvXA/3i5op+/XRZhX5WcR2ighkqYdXhEydOFGfOnFn8Oazkvvfee8UzzzyzAFarKBvE2qdaXY79LjxWE/Ta7958883i+PHjZTVaPUa1ah0e37/zvx09erS4e/dux3Qw79d27J18Q/6oKEB+I7+p8TR3O/igbntUihtCNLcf1lNRsaOseyZIJWKclYihd5946623ijfeeKO4efPmQqCwkmvfnz17tlwyYR8D1gsXLhRW3fXvHOqbflddavH8888Xt27dKiE4BHHr36E55Rhtx7fvqBSvJ66RP9ajM/mjn87oBxQXarBS22FUOGUKZKt2pbabk/0NCcUOoGGlOlbJNdi9fPnyoorrFdiwrQNzWLn131XB19o6ULsnOSBXjx/+2/q2tdDheP0YR44cSfoubz24uTfWFMe1oShQ12UT45+pwGue67awbv+gUtwQw3HKfrCLfujnCqhBbUgoNqC8ceNGuTTCP7GqqlV2T548WZw7d27Xg3ZdwOq/a3t4z47rx7RlGlaJDh/mix2jamW21OLZZ59tfHjQvxtimQpQDBSreUFtN6eiAFA8Dv8AioHiUgE1COVuR1DrB89z0m8oKHZQtWUQ4WfVleLYcg07vlKNtkrx+fPno+uCDazbvqtWmKkUE//abECd1AJ144C6lHw+p/yRy/6AYqAYKO6gApJCXSB1cpQSdIeAYgPTK1euND501rWmOLZ8wtYNq2uK/aE6X1YRW7fcdgxbymG/DSvMVu0Ol2uE39n1AIqXt2fV7tV2Kf6RK+kDTc0BX71uajuu7/SKPkAxUAwUA8ULBdRgr7ZLSQpDQLE/6FY1AX+4zf7etvtEE7A2/S5matV9ipv6jFWuw99WH9Zr+s7/vu4lFCyfoJKoxg21XUp8YVKB/Sl2BRQDxUAxULyxUNxx6fk6owJAMVCiQAmVbCrZoQLrvlMLFAPFQDFQDBRnhPvD4lYAACAASURBVD+6iisAFAPFQHHcBnLrovZHpb1+PbYePny4ff/+/eLAgQOtsVwVOXc7GxTjq18aVWf06xeE0G99+u3bt2/wl3cAtKtTwKB4J9+sNc/gv+vzXzvSEFuKwQfwgcpDSjugOEOlGKfEKRVnS7ktqPY3p6QPFK8OSMfQM1AcvwrkD/KHGu9zt5tT/sg1KWP5RAYoXvealxS44vZI/0oJ17df0lL1G+JBuzHA4qaMgeUT8Sut+keupE/+aPa4VUAn13c9+SOXfwDFQHGpQO5goPYHtAPtbn9A8bzxGCgGitW8oLYjf5A/cvMLUAwUA8UdLMJMfz0z/RxQ7NuW2RvhwrfT9cHNVfS57Hhib9mL9RW2G8v4gWKgWIVdtR1QDBQDxT0hVnU2tR1OiVPmdsqU/uZkfzmgeFnYbPvdWKDSxrgMFK9Ck2X6BIqBYjWvqu3mFP/sXIZ4UJGiz26/pFLcE7JxSqA4BWLVYK+2m5P95YDiKsAaiL322mvFxYsXS0O1l3KcOHGiOHv2bPlv+85e8+y/C9v6yzBiUBy+GMNftmH9qcdzr4n148ezsV6/fn3XOL390aNHy7fw+RvwvD9/6UjY7vbt28Xhw4eLsHre9kKS2HGXgeDqb4BioFiNa2q7OcU/oHgc/gEUA8WlAmoQyt2OoMakwu1vVVDsoOhVVv+3A6W92c1B9PTp08XNmzcXFVkDXvuEUBl7hbO/Hc7ATzme9dnUTwjF165dW4CvHaNaKbbjOeyGr4i2cfvrnKtQ3/Xq6pg+QPEXChD/+sUr9EO/FD8agg+AYqB4JcFeDX5DGP3YnXJTx7cqKK5WSP3f4WuTq+Br/7ZXQJ88ebI4d+7cAort7w6bHjoMMi9fvlycOXOmrBQrxwuhtdrP8ePHy+PFXvdchd1Dhw4tIlh4Pk1QbP2GfTuc2/jbjhseZ1lAplIcV47b13VdyB/rgWfyb11noBgoBoo7sjxJaz1JawxQHC6FaIPiqiK+DCMVimP9OIR3QbH91irJvjTE+7LfNUFxDOqr5xk7LlD8hboqrKntgJJ+8Id+6JfbL3l5RwYoZvP1ftCEfuhnEJHj5R2xNcVK5dauQHXdrVeAvYJq/djn/Pnz5Xre2CcFipv6CSu+BqNNFWBfStEFz6EmQ1eKeaNd3WqIf8Q/dRKVu50pj/3ttj+gGCheSQVEdV6csv9Mfy5BbQxQXF0P3LSm2JdLOJg6eKtQbLAbLrsI+6mCaxcU+3pmq/jeunWrrBL3WVO8ykoxUAwUmwK5dlkgf5A/sleKdwLqNreH+81U0Q/91ElA7nZzun04huUT4c4L1bXHTbs3+C4Vdi1SoNjbu/dUd7toglPfOcJg2EHY+rDfX7lyZdf6Zvu79ZOy+8QqodgBvqEWwfKEnkUa4ks/SEQ/9GNNcc8gNCcoyTmDV4ML+vULQnPSLwcUN8FW19+rSxa62vN9ugI8aBfXjKIKRRU1X+ZuN6f8kYtfgGKguFQgt7Op/eGUQLHbH1CcDppT+gVQDBSreUFtR/4gf+TmF6AYKAaKO8iCSs56KjlDQvGU4HKqYwWKgWIVdtV2QDFQDBT3hFjV2dR2OCVOmdspU/qbk/0BxVPFXW3cQDFQrOZVtd2c4p+dS64HENFveS6hUtwTsnHK5Y3Pf0kldj2V2LEHXaBYg8uptgKKgWIV1tR25F/yb0oRSbEroBgoLhVQjGUV7QhqBDW3K6B4qrirjRsoBopz5xnyB/kjN5cAxUAxUNyR06lkr6eSDRRrcDnVVkAxUAwU94NY9Fu9fry8IwMUz+XlCUPdXke/ftA5F/1yvLxjqsC4CeM2KOblHfUrPRf/JX/EvZjrO638BhQDxYNXigka0woaKberrK16fYHieaMxUAw0raLSqcYXoB37U+yP5RMZoJjb6/2gDv3Qz4IVyyfmD8W80a5+jYl/xD8F1lKKEWp/1if2t9v+gGKgePBKMU5JUgCK5w3EdnasKY5fY+If8U+F2NztgOK67QHFQDFQ3MEjJK31JC0qxfMGY6AYKAbq4jaQWxe1P6AYKM6+9RhG1c/J0Q/9/LYgUAwUq8lcbUd8Ib6sYtkB9tfPrsasH5ViKsVUiqkULxRQg5XaLgVKgGKgWLUrtV2K/Vlb3ihWt0HulK3nThn2N447KUAxUAwUA8VA8bx5dBRnx/KJcST9lMopk4p+FVH0m55+QDFQDBQDxUDxKLBx3oMAioFitcKvtgM6pwedY5+UAcVAMVAMFAPF8+bRUZwdUAwUq7CrtgOKgeIUyFbsCigGioFioBgoHgU2znsQQDFQrEBJCuQAxUBxir0o9rd179697QcPHhT79+9vjciPHj0qv9+zZ89a29nBGF9dcvV6oF/cXNGvny6r0O/QoUPzpkLOrtjJN+SPigLkN/KbGk9zt4MP6rZHpZhKMZViKsWjqBTbIDbp6X91tw2e/q87qFLx8V+hH/qp9pK7HZXs6VWygWKgGCgGioHigwdbrSB3skx5gx9QB9Stwv6USShQNz2osxGr9sL1pVIsGwtG1S8YoB/6Ualr5mygGP/AP9r9A2hffjJI/l0+vlApplJMpZhKMZViKsW7vICkunxSpVLXH3axP+xvqEkjUAwUA8VAMVAMFAPFOwps0pp2KrFUYlk+wfIJlk/0nASoM3i1HU7ZryKAftPVjwftgBL8d7r+y6Rinv5LpbgnJBLUCGopt0vVyYLaDvubrv0BxfNMqinxAP+drv8CxfP0X6AYKGb5BMsnWD7B8gmWT7B8IhoJ2f1kefhj0jO9Sc/Ww4cPt+/fv18cOHCgFQ3UylXudjYoxtfPKdEP/XL7pdof/tucFPbt21fsxN+OKRnxLyYQ9tcPNtAP/VwB+GC3LQDFGSrFGBXQqSaZ3O2Azn7JbUj9gOLl44bqR0NeX/X2OvljeTvg+k43/o3VP1g+kQGKub3UL6ihH/qpkJO73ZC3N1lTvLzdq3Yw5PVVkz7xb3k74Pr2h2Lsr1Ip3t75IApOqSaZ3O0IagQ1UyC3Xan9DWl/QPHycXcK1xco5voOGV+wv+Xsj0oxleJSATXJ5G5H0ACKN9X+gOLlklaKvRBfiC8p9kJ+62cvc9APKAaKgeIGG/A/cydleXgBSpqTDFC8vF2pyRf76wc56Id+mzapAIqBYqAYKF4ooMKG2o6kChRvWlJNOV/8A+hMsRc17qrtsL+6/QHFQDFQDBQDxexTvMsLSKr9YA390I87jc2Jdcz+ARQDxUAxUAwUA8VA8Y4Ce/fubY0GajJX21Gp6wfP6Id+uSvtQDFQDBQDxUAxUAwUA8XRSMgzFXVZmPT0g/Ex68fLOzJAMZuv9wsa6Id+apDM3c6UH8r+eHnH8nav2sGQ19eO3VV5Znz94Ar90C97pZjXPGNUuY0qpT+CGvaXYi8qDKnthrQ/oBgoHtL+gHbsD/ur2wDLJzJUirm9tHxwsV+iH/qpEJu73ZD2x5Zsy9u9agdDXl8VOol/y9sB17d/UQX7260hUAwUlwqoSSZ3O4IaQW1T7Q8oXh6G1DhEfCG+bGp8YVK2XHwBioFioLjBBvzPzKSXCy7o12xYBnVA8fJ2BRT3g130Qz/ic9wGgGKgGCgGihcKqMlSbUelrjn5AsVAMf7RD07RD/1y3wkAioFioBgoBorZkm2XFzDp6Qcb6Id+VGLb75TZt8ruLOu+UwsUA8VAMVAMFAPFQLGQpFXYVdtR6ewHz+iHflSKe0KsGqzUdjglTpnbKVP6w/6ma38sn6hfOzXuqu3wj+n6x1gricTn/hXgMfsvleKekE3QJeimBEk1GKjtsL/p2h9QDBTjv9P1X6B9nv7LG+0yQPFQb8RSnZLxLe+89kv0Qz91kpLSjpd3LG9Xqs74b3/oJP4tb6fY3/TsDygGiksF1CSTux1BY3pBI8VeuL7N1xcoXh421DiE/RFfUuKValdqO+xvevbH8okMULzupyNTnNzaMr7lky/69Q9q2F/c/lg+sbxfpkAJ9re8zsQ/4l8Kb6h+qbYbwv6AYqB48EoxSYukpQbJ3O2GCLqeZIDi5e1etYMhr68de4xbTqVADvoBxSn2ovql2m4I+wOKgWKguMEG/M9A+/LwMkRQSwniQ44PKF7ersacVKdif0A79jdk/Bur/QHFQDFQDBQvFFBhQ21H0G2uNAHFQAn+QSU2ZRKlxl21HfZXtz+gGCgGioFioJiXd+zyApJqP1hDP/TjTmNzYh2zfwDFQDFQDBQDxUAxULyjQNcaYDWZq+2o1PWDZ/RDv9yVdqAYKAaKgWKgGCgGioHiaCTkmYq6LEx6+sH4mPUDioFioBgoBoqBYqAYKAaKP/+81CDXHQMq2f3geQj9gGKgGCgGioFioBgozghDY66EpdxuHgJKGF9zQlLtSm3H9a1rvXXv3r3tBw8eFPv3729Fg0ePHpXf79mzZ63t7GCMry65ej3QL26u6NdPF/Trr9+hQ4eKnfjbMSUj/sUEwv7625+Sz8kf/XRGv+npR6WYSjGVYirFVIqpFFMpplIcjYSsKa7LQiU2njRVXdR2Q1SygWKgGCgGioFioBgoBoqBYtYUR21Ahdjc7YDiBjhhpspMNbezqf0N4ZR2TMY330qEX19e3rF8XMM/5u8fdoZdD7wRn/vZAfrV9aNSTKWYSjGVYirFVIqpFAsQpsK42g4oAepSiiCqXantsD+gWK7AYVT9ghX6oZ8rwJ2eeEWUSjGVYqCkX5xEP/TLPamgUkylmEoxlWIqxVSKqRRTKY5GQia1y0/egPbpQTtQDBQDxUAxUAwUA8VAMVDMg3ZRG1Dv/OZuN8SkAigGioFioBgoBoqBYqAYKAaKgeKHDx9u379/vzhw4EArGuSeAaj92aAYX7/bN+iHfqq/5W6H/zbfPty3b1+xE387pmTEv5hAqp1if/1vX5M/yB+qv+VuN4T/bgHFBA1TILcxq/0NYfQp58v48I8Ue1Ht3toBxcvDhqoz/ov/rsp/rV9lyzgmFcv7+RD+y/KJhjpNStDlQYR+Ro9+6Kf6W+52pvxQ9sfuE8vbvWoHQ15fFZqGsj/Gh/3hH3UbAIqB4lIBNcnkbodT9q/kkFSXT25D2h9QvPx1U+PQkNcX6OT6Yn/Ty29AMVAMFDfYgP8Z6Fw+uZEUmpMCULy8XQHF/WAD/dCP/Ba3AaAYKAaKgeKFAmqyVNsBxUAxd6LaAwyT7uUnR8SXfnCPfnX9gGKgGCgGioFitmTb5QVMevrBBvqhH5XY5sQ6Zv8AioFioBgoBoqBYqB4R4Gu3QTUZK62o1LXD57RD/1y34kCioFioBgoBoqBYqAYKI5GQpZ3sLxDneTlbjfEpAcoBoqBYqAYKAaKgWKgGCjmjXZRG8gNu2p/g0AxL+/of/uBzbn7zaTRD/3UIJm7nSk/lP3x8o7l7V61gyGvrx27azkG4yP/5r79n9If9le3P95ol6FSPFRSJeiSVAlq002qQDH+i/9O13/Jv/P0X5ZPZIBi1lwt7xxD3B5JnUlzfbm+amUypR37FC9vV6rOxJf+0En8W95Osb/p2R9QDBSXCqhJJnc7gsb0gkaKvXB9m68vULw8bKhxCPsjvqTEK9Wu1HbY3/TsDygGioHiBhvwP1MpWR5eSApAMVDSHmCIL8QXFbJztyM+120PKAaKgWKgeKEAQbdfZSNFPyrFy8OQqjNJv589ox/6bdqkFigGioFioBgoZku2XV4AdPaDIfRDP+40NifWMfsHUAwUA8VAMVAMFAPFOwp0baGmJnO1HZXYfvCMfuiXu5INFAPFQDFQDBQDxUAxUByNhKx5rsvCpKcfjI9ZP6AYKAaKgWKgGCgGioFioJg32kVtQIXY3O2GuBPAyzsyQDEv7+g3k0Y/9MsdTNX+TPmh7I+Xdyxv91O4vnZ2XcsxhrQ/xof9YX91GwCKgeLBK8VDQQlJgaQwZFIAirG/Ie2P+If9YX8RKN7e+bBmaHnnGKK8b8dMqZRwfbm+qr3kbod/xGfdpjNbsi3vl6qdYn/N9qdCMfljeTvF/qZnf6wpzlApJmgQNNQknbsdQXc6QffnP/958a1vfau4du1a8eKLLy6g+Mc//nFx4cKF4qc//WnxjW98o3ZCxBfiS+64ofZHfJlOfAlHyvVd/roBxUBxqYDqRLnbEXSXd17/JdA0HWh6/PHHi6997WvFl770peLevXvF17/+9eLhw4fFb37zm+IPf/hD1Bi4vtO5vj5SNU4S/4h/5N8GCPvTn9cd/4BioBgobvfJYt1OmRIkSarTSqpXr14tvvvd75aT0K9+9avFb3/72/JhrFdffbX4zne+AxTz9H/UBlTIzt2O+DKt+MKkbG9rNlf8AygGioFioHihgBI0gPZmg1H0swfsfv/73y86eeyxx3b9u9o7kzIqxYpdpfil2h9QDBSvwq7GbH9AMVAMFAPFQPEa9ym2avH3vve9ctmEPWxnVeJLly41WiFQDBSrEJG7HVAMFAPFPSERp+znROiHfilBiKTVz16G0s+rxV1V4qHGp8YhxjdN++P69rtu6Ddf/agU95wEkBT6OQf6oV/KJEBNRmq7oezvhz/8YXH58uXiBz/4QWuVeKjxjV0/xtcvbqAf+rkC3InabQtAMVBcKqAGydztSPr9gjP6TVO/3/3ud8Xf/M3fFP/8z/9cfOUrX2mIQl/8maRVl0eNQ+g3Tf/g+va7bui3vH5bO9sCbT948KDYv39/a2B+9OhR+f2ePXvW2s4OxvjqkqvXA/3i5op+/XRZhX6HDh1qjS18OX0FbBu6to9qV2o74l8/P0c/9DMFVH/L3W4I+6NS3BChmWktP9OyX6If+rkCaqVTfcPb9NFwM89ga2ur2HmBauvJq3FDbWcHU+3P2tr2eG0f9bhqO8bXL06iH/ql8Ibil0AxUFwqoBjLKtoR1AhqbldA8bxhGSiOX1+gva6Lmo/IH+SP3FwCFAPFQHEHi5C01pO0gGKgWIUhtR3QBDTlhqaU/rC/6dkfUAwUA8VA8UIBFTbUdilJASgGilW7Utul2J+1ZflE3QYpCqynKID9jeNOClAMFAPFQDFQPG8eHcXZsXxiHEmfSmezO6iTLbUdkzIqxdnXpmJU0zMqgi5BN1RArTRRKR4Fu65sEEAxUKzCpNoOPoAPUnhDsSsqxVSKqRRTKaZSvDIUpGNXACgGihUoSYEcoBgoTrEXxf6AYqAYKAaKgWLYdeUKAMVAsQIlKZADFAPFKfai2N/Ww4cPt+/fv18cOHCgNSgqneUenA+I8dUvjXo97Jfoh36qveRul2J/+/bt69zHduXkxgFWpoBB8U6+WWueSbE/azvEg3bEZ+Jz7rir9od/1G0PKM5QKSaoEdTUIJS73ZyCGlC8Mh4dRcdAcfwykD/IH7nzgtrfnPJHrkktyycyQLH6IFGui5ZSkbe2jK9f0EW/9eg35IN277//fnHs2LHaib722mvFK6+80giVn332WXH48OHi008/Lfq+ptr78oMdPXq0uHv37uLYBpWxjx/7rbfeKs6ePVtcuHChuHbt2qLp888/X9y6dat47733imeeeWYwQGb5RFx64st64gv5F/tTJgtAMVBcKqAYyyraAe1xA1Svx5z0GxKKY1fh6aefLm7fvt0Ku7mg2KE8BFcD29dff30BxgaVb775ZnHmzJnFcA3YP/roo+LmzZuFQfGVK1eKDz74YNcyFPudAfaNGzeA4p7xXvVLtd2c/BfoBDpVu1fbDeEfQHHPIDnERUuBU8YHdKbYixqs1HYp9jcmKDbYPHHixC4ADSu1Dq8OxVZRvnjxYmls1epy7HdVqzQAf+mll2pVafu7w2wMih2mt7e3F1D81FNPFZcuXSoB2L6/evVq8eGHHwLFLTVy1Z5zt0vxD6AT6MT++uVzRT+gGCimUtySLEla/YJQin5jgWKruL7xxhtl9dU/IbT6MgVbtmAfWz7hSxb8O4NU+zT9Llxq4WDdtbxBrRQbXNvHwN6XUVjFmUpxs6MryXIVk8sU/wCKgeLcdor91W0KKAaKgWKgeKHAkEF3DFDsgOpQa8LElkgY7F6+fLk4fvz4rjXFYVsH5nC9sf8uXAKhLsFoWlPsY/XlEwa/Vh02qLf1xFY1Pn/+PFDc4ue57V7tDyhZ36SbSQWTCsUvgWKgGCgGioHiPykQLldwUcIlCv43g82TJ08W586da4Rig2F7eC8EbP9d9eE9A96USrGDdLjG2KHYHs7zh9r8/2Pn1WH22b/mQTugRIGSlIo8kwomFSn2otgfUAwUA8VAMVC8o4CDarhzwzoqxXaMJli2v7/44ovl2ubq8olwGYctxwih2Pu7c+dOWTEGig+2ermSLHMnXx8Qu0/UL416PYBioDi3XwLFQDFQDBRvPBSHQBkzh641xb5EoroUQllTbMdbdvcJg1/7hLtPWKXYwN4e/POH/oBioDi0a6CzH0yi33z14+UdGaCYzdf7zfTRD/0syQz58g7fy7d6JcI9f9t2n2iCYutP2X0iBGMfQ2yf4uqWbOHuF0eOHCm3ZDMorkL2WKCYN9rVfZ34R/xTITt3O1Me+9ttf0AxUDx4pRinJCkMDcUdNwv4OoMCvNEuLiLxj/iXG3bV/oDiuu2xfCIDFLMmrF9QQz/0syA+ht0nMrAfXTQowIN2cWGIf8Q/FWJztzPlsb9KpXjnyehtRMEpczub2h9OGU+Um6gfUDxvngaKgWI1rqntyB/kD1NAtRelHZViKsWDL59gUsakjErxvIHYzg4oBooVKEmBHKAYKE6xF8X+gGKgGCju4BGgfT3QTqV43mAMFAPFCpSkQA5QDBSn2Itif0AxUAwUA8ULBZSgkRKEUpIWUAwUD2l/pv7evXtbLwLj6wdh6Id+q8ofufwXKAaKgWKgeDZQ7FuUdb0dLgU/V9FnyvHDtrG368X6CtuNZfxUiqkUA8VAMVAMdAKdQOcooDPXTHpVQW2sleKxQKXpvgwULwvguX8HFAPFQDFQvKr8kSu/USkG2oF2oH0U0J4DiqsAayBmb3Wzt7vZx17GceLEieLs2bPlv/2Nb+FLMLytvygjBsXhCzn8xR3Wn3o8FzzWjx/Pxnr9+vVd4/T2/mIPf9Wz9+cvGwnb3b59uzh8+HARVs/bXkQSO24OQAaKgWKgGCgePRTvvGFom83D64aqOq/9Ev3QT7WX3O3mZH853mgXg2IHRa+y+r8dKHd2pSz8d6dPny5fmextDXjtE0Jl7NXN1odDsXI8a9vUTwjF9rrmcJzVSrGBpsOut7Mx2/+OHTtWhOfm7bpeWR3TJxcU80a7upLkD/JH7ryg9jen/GHnkuOZAN5o1xDtMar1zGhxyn46z0m/VUFxtULq/3b4jIGv6Wqvfj558mRx7ty5BRTb3x02/coZZF6+fLk4c+ZMWSlWjhdCa7Wf48ePl8eLvTq6CruHDh1aGFB4Pk1QbP2GfTuc2/jbjhseZ1lA5o12ceWAYqBY5Y3c7eaUP7JBMS/v6A8lbNnVL6ihH/rl2qc4VilWINWuQBUW26C4esV8GUYqFMf6cQjvgmL7rVWSfbmH99VWKY5BffU8Y8fNBcVeUW8C61UkfeIL8SW3Xan9mfLY37TsjzXFDdEZo+83WUA/9HMF1KSwqjXFKVActvUKsFdQ7Tv7nD9/vrh79270AqdAcVM/YcXXYLSpAhwu8WhrF04Uhq4UA8V1s1H9I1clzPohPhOfU+PzptgfUAwUlwqoQTJ3O2bS/YLznPQbAxRX1wM3rSn25RIOpg7TKhQbxIbLLsJ+quDaBcUOmlbxvXXrVrnsos+aYirFTXXs/HFyTv67KdCUki+5vtPLb0AxUAwUN+fA8hsqOXWB1MlRin5jgWLf8aG69rhp9wbfpcLONQWKvb2rW93toglOfecIg2EHYevDfn/lypVd65vt79ZPyu4TQDFQHCpA/FtP/GNSEfe7ddsfUAwUA8VA8UIBFXbVduuG4o5L2fh1dcnCsv3wu2YF2JJtHEnfRrEK/wXquL6qXantUvJHLvsDioFioBgoBoo/+6z2oB2Am1cBoBhoUmFIbTcENDGpmPedFKAYKAaKgeKNh+K8+EdvMQWAYqBYhV21HVActyn0W14XoBgoBoqBYqAYjl25AkAxUKzCmtoOKF4e/vyX616zO/ZKO1AMFAPFQDFQvHIk5ABAMVCswq7aDigGilMgW7GrrXv37m0/ePCg2L9/f2vUfvToUfn9nj171trODsb46pKr1wP94uaKfv10WYV+tk2Zby9WfQnHMkjZ1Ud1pwjlGOE2akr7Zdqkjstf7+zbyfkxfWeKcNcMdTzKGLr0rR7L+tzJN+SPigLkN/KbGk9zt4MP6rZHpbghRCszCv8ptx/qIqJfvxn8JuqXY0s2FfqsnQJ+1f7GCsW2FdsHH3ywmFT4+R09erS4ceNG8cwzz6RII2mzDBTz8o76ZSB/kD/UeJ+7nSmP/e22P6AYKC4VyO1san84ZT94npN+IRTH3sJmlVDfQ9hfq2znX33VcXW/3+p+w/Yb76tp72HfqzcVin0PYftd2IdXc72/sKrr5xobV9O5heOyvg2Kn3rqqeLSpUslANvLQK5evVp8+OGHu6A4HF947k1jaHuRiI2hbf/jqoYsn4j7OlACFKv5Mne7OeUPO5e9e/e2Tv4V/YBioBgobnUjZtIxeZTg4r9Tk74CxQaJDphWdXSYqy67CL9z+LMq70svvVS88soriz7avotVNdsqxbH+vY+wKu3jd2hsGpcDaezcYlBs52YfOz/TyT6vv/76Aopjx1HHEHuhRxWK287f2gLFQLEaN9R2QF3cptBveV2AYqAYKAaKFwqowVRtl5K0uqC4Dcxild1YtTls56BqYzx27NiupQdN8Nv0d39NcwjS3vb48eOFrZf2T/iiEAfL2LiqVdomM/VKsS2TsOrwzZs3yzfdWdX4/PnzJRTH+grHJaygrgAAIABJREFUZ98rY4iN3SYWioZAMVCsxg21XUp8sbY5KonWD+NbHjrHrh9QDBQDxUDxZKHYYNOB1E8itnyiCdoMGP27qhmESzT8uy4obuqjugzC2hmE2v9iQO7rgJvOLTyOQ/Hdu3cX1VgHUBtveI4htBs4nzx5snj22Wcbx6Aun1A0BIqBYhUm1XZAcT84Rb+6fkAxUAwUA8WThuLw8jVVMmOV0rBSbBVVg8quTxsUN/XhYKtWupseAGx6FXUIxQ66d+7cKSvGDsXrqBR3aQgUA8Uq7KrtgDqgOKXyrNgVUAwUA8VA8WSh+N133y0fMnOgDdcYV3dHMEA8depUud7W1/WGa4ovX75cnDlzZlF5jm1l1rWmONZHtUrtW6WF63lj4/rkk08az62pUuwVaa9yOxTbw3dda4qbtDGY9eq7929jt0/4oF2ojU8Eqg8ysvtEPdioa+7tl9z+R7+cdsCkgkqxvBZImVG4nAS1umGhX78Z/Cbqt8yaYls+YQ+W+a4Upnp1t4nYDhOnT58uL5Dv1mD/He7M4BBYvYoGfrb1WfgJd5Jo6sNB2H5nfRvIO0CHx66Oq+ncmqC4CqMhFFfPsQr9PvbqGMKdMwy2L168WC77qEJxl4ZUiuMxgfxB/lDjfe52QHEEih8+fLh9//794sCBA3GP/dNfc18MtT87POPrFzTQD/1Uf8vdLsV/9+3bt+tht9aAxJeTU8CgeCffrDXPpNiftR2iEkt8Jj7njrtqf/gHULySSjFBjaCmBqHc7eYU1IDiyXFu0oCB4rhc5A/yR+68oPY3p/yRa1LLmuKGsJ5iVNz+6hfU0A/9zN/W/Ua7JKKjcW8FWD4Rl5D4R/xTeSN3O1Me+9ttf0AxUFwqkNvZ1P5wyrgBbqJ+QHFv7hx1B0AxUKzGNbUd+YP8kZtfgGKgGCjuQAlm0uup5ADFo2ba3oMDioFiFXbVdkAxUAwU94RY1dnUdjglTpnbKVP6m5P9AcW9uXPUHQDFQLGaV9V2c4p/di5DPOhJ0We3X1Ip7gnZOCVQnAKxarBX283J/oDiUTNt78EBxUCxGtfUdnOKf0DxOPwDKAaKSwXUIJS7HUGNSYXbH1DcmztH3QFQPI6knxLvic/E5xR7mQMfAMVAMVDcgRLcXqoLpAa/lKQKFI+aaXsPDigGitW4obZLiS9UYrE/xa6AYqAYKAaKFwooQSOlcpCStIDi3tw56g6AYqBkyPgCFGN/iv1t8Ua7/rdH2Hy9XyUR/dDPghUv7xg10/YeHC/viEtI/CP+KbCWUoxQ+7M+sb/d9gcUZ6gUY1QENTUI5W43p6BmUMxn3grwmuf69SV/kD9y5wW1vznlj1x3Alg+kQGKWXPaL6ihH/qpQTx3u5TlHbmCrld81OUi+Af+kdvu1f6G9A/F3xhf/zvdxJdKpXh754MoBF01SOZuR1AjqK3itqBqp0PaH1C8fNydwvUF6ri+Q8YX7G85+6NSTKW4VEBNMrnbETSA4k21P6B4uaSVYi/EF+JLir2Q3/rZyxz0A4qBYqC4wQb8z9xJWR5egJLmJAMUL29XavLF/vpBDvqh36ZNKoBioBgonjgUdwyfr1EABUasAJPu5SdHQDvQnhvagWKgGCgGikeMDAwNBeatAFAMFKt3PnK3Y1JRtz2gGCgGioHieVMHZ4cCI1YAKAaKc8Ou2h9QDBRnf6AMo+L2Te7bN139Pf3008WpU6eKa9euSaneXprw6aefFocOHZLapzTyvn/2s58Vd+7cKW7evJny8/Iclvld0kGExn00ev7554sXX3yxOHPmTHkkO6eLFy8uNP/ss8+Kw4cPFzsb/URHEmrQNI7333+/OHbsWPn7VV1LQaaySR+t1GNU25nGTz75ZM3mTbvXX3+9uHv3bq1r1/XkyZNRG7PzeO+994pnnnmmcVh97Vs5X6AYKFYhNnc7+CUCxbzRrj/Usfl6v6CGft367d27t2xkcHT16tXiww8/LG7fvt0Jug5kqwCpHH2PAYr7noedw8cff7wANpu0PPXUUwtQfuutt4o33nijc8LQNo4x6GT211crBRJjbUzDK1eu1ODXoPXNN99cTEjC33Zp1gXFqz5XBxziX3f8a7Mb9EO/nJMF3mjX4G2qyPZznBKnVO1l2XYOxa+88kpx4sSJ4pNPPilFt387LFsl0auRnvDPnz9ffPDBB8Xp06dLKDO4OHv2bPmbCxculCDn0GagbW2telatStpxrl+/vrjQdhyDP+87rMZ5pdQa+3F9rNU+HFzse+vDz8cqg+G//cCxvh1e7Fi3bt0qNQjb+Xk2jSE8D9Oo6bdNidkmKqazVSttLM8991xx+fLl4p133in78oq+nVtMR9fA9Q81s2M2XbPqdYzpUIVEq2CH18Ur0FW7seqp6xLaSlWrZe0ppnHX+KsQG4Jym66hbZpdmY24rXilOMW+Y+fsNmBamU8cPXo0Wr0OrwdQ3Iy6apwk/8Y1RL/ldWFNcYNfphgVt7/6QTH66foZGBjAOHz5beMmuLHb9vY/qxTbx//bllJ4lc3+boBlbWwZhIGTQ+9LL71UgpyBgC8PcDgJ+/blE5cuXSqB2ivTBlEGiPbbWB+//OUvy1vb9rsQLGPLDfwcq30fP368PC+vGIaQaudmY7hx40Z5m7zrPKxvH0f1t80p/P+WFLz77rslDH/7298u4diuj4GYnV/T8V2DH/3oR7uuTxVofZlJtYLp17GqQ/j7Ju2OHDlSXq8qFNukK6zMxq75svb07LPPRjV2e2qq/PqEyScZdl3b7NN1dSi2JS5+Tq6HQ3GXXbh9V6+Ra+86Wn9+Hl1LM/z6EP/0+BfzQfRDP5XXlHZAMVBcKqAYyyraWZ8ENS2oWeL26qP9wqvGBpwKFBuwhaBjv3/iiScKS+j+9/CWc7Va61U2O3aY/B2mDdpi6zcN4nw9c7UPBxer0Brk2JIQG2dsuUHsdrj1XYWzsArpyr722mu7qtBWLWw6D6+mxn7bBMZ+Lez6vPDCCyUA+/lUAb9JAxWKq0sJ/DqeO3dOgmo/B9POrl0Mih3srG1YuQ6BfFl7sj5jGreN334T2njV3u37Jl3dJm1Nsn1CqPbJUuz3sUlfCNbug+ZDBvoxHdvWK/t1IP5p8a/J99AP/XLyC1Dc4GmqyPZznBKnVO2lT7sw6bviDix9odghNAbFDisOll55jUFD00NNDlPVPkIotmMboBtY2hIRr0z7uTatEa1WTrvaKefR9sBgeKs9XJZi1dXwoS+H1WqFt0mDdUNxFTTt37F1tvY3+1gF16vRBtNtUNxmT9ZX7OFKZQ2v256tq/cH77psqwuK3Y4Vu0iF4p/85CeLZUfVZTFAcRPm6kUa8m9cQzXPoF9dP6AYKC4VUJ0odzucUgtq1eUS/it/Ot4rfvb//t/Vaq79pmn5RBvEhFWw8LazsnzCdw2w6qlX0sI+Qii28Tn4x3ZqqC4B8L5tqUJ4Xr7m05dZVG9xW99N52Gg50tJwiUmVUCvXjW7Pi+//HL5ZwdqX6vta6NjlU67RrmXT8QeqmzSzq9L1W4M8MO7Er4MJoTiZe3JJj4xjcO+m3ZKsYnGRx99VK4L9vPs0jVcPmHHrV5/O4+Ybcbsu2v5RGxtdjP6ffENRZW6QmqeQT8tf7TZIPa3Wx2gGCgGijuy1hiChlcdfV2lDzlcZxk+RGQPbfmtYYNCf/Cn7cEof8jMq3jh8onwASs7toOe921rO/134THCB45ifVhfYdWwum60emlifccqjGE1N3zQrus8bA1w02+74CZc42ptY+Pq0iC8VuHxqtXv2HXsqrQ2XZcmuwnvTIRVzhz2FNO4a/ymhwNwterapqvyoF2XXTTZt9tW2wOLXXYzhvgCNH2hgArjajugfXrQDhQDxSsJBgSNfsEgRb+upDul78OH4qY0bsaKAssqABTXlUuJf+iHfqq9KO2AYqAYKO7IZmMPussm4zH9zittYVV3TONjLCiwKgXGHl8YH9CpwORcKu1AMVAMFE8cikla00xaX/7ylxvfcheeEdd3mtfXRu37i7eFGK4v13eToDMFnq3tuv0DKAaKgWKgeKFA7uA8RFAbe9D18QHFy8OQaqfYXzy4oV8/XdBvvvpt3bt3b/vBgwfF/v37W9Hg0aNH5fd79uxZazs7GOOrS65eD/SLmyv69dMF/frrZzss7MTfjikZ8S8mEPbX3/6UfE7+6Kcz+k1PPyrFVIqpFFMpplJ88GCrFaiVoZR2VIqpFFPJ7ldxRD/0MwVS4q61b1vWBBQDxUAxUAwUA8W7vEBNMkAJUJIbSlL6w/6wvxR7UeIaUAwUA8VAMVAMFAPFHRWk3MnXBV/3g0Qp5wF0Ap0p9qJAZ0p/Q9gfUAwUA8VAMVAMFAPFQHE0EgLtdVlU+BsC6sYOnWMfH1AMFAPFQDFQDBQDxUAxUPz556UGXVvpAcX9Kuhj1g8oBoqBYqAYKAaKgeKMMDTmpD/2Sh3ja05Iql2p7ahk17UGioFioBgoBoqBYqAYKKZSTKU4agMqZOduNwS0A8VAMVAMFAPFQDFQDBQDxUAxUPzw4cPt+/fvFwcOHGhFg9wzALU/GxTjq18a9Iubq6qL2g7766cz+jXrt2/fvmIn/nZMyYh/MYHw335+iX7o5wrAV7ttYQso7uccJH30MwXUJJO7HfY3XfsDipef7Kt+hH9M1z9s5F0PvHF9ub658y/LJxrqNClBly1rlk9u9kv0Qz/V33K3G9L+eKPd8nav2sGQ11eFOuLf8nbA9e0PxdhfpVK8vfNBFJxSTTK52xHUCGq5Z/op/Q1pf0Dx8nFXjUNDXl+gmOuL/U0vv1EpplJcKqAmmdztCBrTCxop9sL1bb6+QDHQhH8Q/1LiKfm3n70o+gHFQDFQ3GAD/mfupCwPLyR9oJik3x5giC/EFwXWVuFHxOe67QHFQDFQDBQvFMgdnAm6zVB86tSp4j/+4z86rI819zGBVDvF/vpV1tAP/VYB42P2X6AYKAaKgWKgmH2Kd3nBmJNWSpIG6oC6FHtR7V5th/1Nz/6AYqAYKAaKgWKgGCjeUaBrCzAVhtR2QNP0oCkFsrm+07u+QDFQDBQDxUAxUAwUA8XRSMia57osTHr6we6Y9ePlHRmgmDfC9Asa6Id+apDM3c6UH8r+eHnH8nav2sGQ19eO3VV5Znz94Ar90C+lcq/EDaAYKF5Uir/5zW8Wd+7c6aib8jUKoAAKoAAKrFaBkydPFr/4xS86DzLUpJZJzzwntSyfyADFc7m9pOybqsy0UmZu1nYu+ilBEv36VTbmpJ/ib/hHP3tBv+nqh3+sBzrJv7t1BoqB4kWlWAlCc4ISBWJJqtNNqmO/voq/YX/YX0qRYU7xGf8AioeIf0AxUAwUd9ygYya9fHAeIqilQMSQ4yPpL29XKvwNeX3HPikb+/jwD/xjCP8FioFioBgoXiigwobaboigBhQ3G7R63dR2XF8q2Sn+ptqVtQOKgeIh4gtQDBQDxUAxUMyWbLu8QIWXIZJWCoQxvulCO1AMFA/hv0AxUAwUA8VAMVAMFO8o0LWFmjpZUNsNkfSnMqkAioHiIfwDKAaKgWKgGCgGioFioDgaCYd6pgIoBoqB4gY4GcopbThdlYMhLtqqZvpKEFIrIGq7Oemn2Iuqi9oO/bg9nBIPVLtS22F/07U/JV4NeX2VfDTk+MauH+NbblLByzsyVIrnsnm48oYtNVmq7Uz+ueinBCFVF7Ud+vWHkqHsT/E3ru90r68SD7i+zdcX/1gO6lImydhfXWOgGCguFTAIU4KQCmtqO5ySpJ8SxFW7UtsNaX+Kvw05PqAOKBnS/vAP7G8I+2NNcQYonsvyDuV2lQobajuTfy76KRCh6qK2Q7/+k4qh7E/xN67vdK+vEg+4vs3XF/9YDxQPFf/G6h9AMVC8qBQrQUiFNbUdSYGkP3SleKikoPgb/oF/4B8NSfpPfx7Kf8cKdSn2Qnyp2xZQDBQDxe0xl0p2RB8mPf1gjZcT9NcPKJl3JZFJ47yv71j9FygGioFioHihgAq7ajsqEdweTqlcqXaltsP++k0+htQPKAaKh7A/oBgoBoqBYqCYfYp3eQHQ2Q8m0a+/fkAxUAwUN8AJa4aWd44Uo1KCkBrs1XYp41Nut6jHVdsxvn7JDf2oFFMpbp91k9/i+U3JR8QX4nPu+EKlmEoxlWIqxVSKqRRTKd5RoOtlTepkWm0H1DFpzA11Kf1hf3X7A4qBYqAYKAaKgWKgGCiORsKhKtlUiuMV9Jx3TIFioLh8SQVGtfztKvTrd7sK/dDPKzkkfZI+UEKlOKWyS/5Yff7Yunfv3vaDBw+K/fv3t9bLHj16VH6/Z8+etbazgzG+uuTq9UjR79ChQ8WOPXB9Kwpgf+uxv02LL4q/pfjvpumnnC/6xcP5KvKHcj3U41o7/GP5uKvqjH/UNWb5RAMCqjOyOc30lcqVqovabk762bmwJrHuUEPdflWux5D2p/jbkOMbu36Mr+5ratxV2w1pf/jHvK/vWP0XKN5gKP75z39efOtb3yquXbtWvPjii4UHoR//+MfFhQsXip/+9KfFN77xjV0KqcFUbTdk0B2rU9q40C/umKouart12t8y/rbO8YWKj1E/xjfvSTf+Me/rOxX/BYo3GIrt1B9//PHia1/7WvGlL32pXDrx9a9/vXj48GHxm9/8pvjDH/5QU0dNlmo7kn4/+EO/aemX6m9c32ldXx8t8W+564Z/7G0gki/+rNqV2o74UpcbKN5wKL569Wrx3e9+t3S2r371q8Vvf/vbcgnAq6++WnznO98BincU4PZ/3UkIussl/VR/I2ktp3P4K/x3Ov6LfwDFVWtdt/8CxRsOxXb6+/btK37/+98vlHjsscd2/TuUSIUhtR1Jn6S/igrImO0vxd/wD/wD/2jOR/gH/pHbP4BioLiw2fn3vve9ctmErSu2KvGlS5eiyqiwobYjqBHUcge1lP6GsL8UfxtifGPXj/E1JK2dP6txV203hP3hH/O+vmP3X6AYKC4V8OpVW5U4xZjHHHRTzmOIpMD45p8UVH/D/pg0psQDNe6q7YayP/yjn92P/fqOeXxAMVBcKvDDH/6wuHz5cvGDH/ygsUq8iuA8VNAds1Om6Ix+/ZLHUPqp/jbU+PCPfnaFfv30wz/66Yf9La/f1s4t8+379+8XBw4caC7P7Hyjipy7nQ2K8dUvjaqzqt/vfve74m//9m+Lf/qnfyq+8pWvNNqCely1nTo+tb/c7Rjf8sHFf4n/1jVU/Q37w/5SJslziX/4Rz+7V+2A+FLXGShuwD8zKruFw2feCtg66q4PULf6SRn+1mWF8/i+y9/UZK6228SkT96ah6+0nUUuP9pE/7BzbnvJFssnWqBYfaPO/F1wnme4tbVVbG9vd57cureESakMWdu5jA9/6zTFSTdQ/E2FXbXdnPyjK5l73MCPJu0mnYPP6Ueb6B9dfgQUA8WdTjjXBkpwIWjEr/4qoIRkPldP++K8FH9T7Uptt4n+ix/hR/jH8nkLKAaK5x1BWs5OSdKbmFS7ZtKrqmSTzOftioq/qclcbbeJ/osf4Uf4B1C8kgcB24LLtWvXitdff724e/fuQv2nn3663MHhzJkztSvy2WefFYcPH178/ejRo7t+u4wbv//++8WxY8ekJQCx/vv+vtqnn+N7771XPPPMM42nFB5X/U2XPtV+nn/++eLWrVvFhQsXCrtWsY+SpDcxqQLFXdbG98sooPibmszVdpvov0DxMtY5nd/k9KNN9I+u/EaluEel2MDr5MmTxSuvvFKC18cffxwFMIfAEBZjUJ3qln2htu/vc0Bx6jmr7ZXAobQhaCw/4/ZfqmueSeaqdU+zneJvKuyq7TbRf/GjafqHOuqcfrSJ/gEUVyxNDabWriu4hNXJtoqtVZBfeumlEp7Dj/39xo0bi6qqGbt/HKD9GFbxvH79evn1a6+9Vvbl7b3q/NZbbxVnz55d9FGtkob92wNm1d/HnNLB+fTp02Xl1R9MC/v69NNPi0OHDhXVam3TeMLj3r59u6yg2/meP39+UWn337YdLxxv9VpUdYydmxJcCBpAsZqsaNeugOJvKfG5K7mlTsqU/qYwvq68hZ1OW4GcfkR+q9sCleIG/1Cg2H5qFd+LFy8uQLXanbo8IARnB0KDTfsYNDrghrBYrfSaszhMh30YsIZLO7yq/cILL3Quv/BjvPnmm4tlIbGxGrxWz7VpPHZePokIf/OTn/ykeOKJJ0rg9wmEjbXpeE1QbEs3wmM3hUAluBA0gOJpp9DxjF7xtylAZ054XkV8AYrHY/OrGElOP1qF/Y3dP7rGBxT3hGKHz6Z1tA59Xk2NHS7WxiH2+PHjJRRXq7H27ypcGvz6J+wzbBd+H/t7dXwOxX782JKL6lhNCxuzMp4Qij/55JPinXfeKScaXkW38VSr8LG1221ADhQP+/Idlk+sIjVOr8+cyVyF501M+kDx9HwjZcQ5/WgT/aMTinmjXXMlzDZB79rH1gzUqrhvv/1244NzXVXLGGj6euVz585JUGxn4VXr8Iyq8Bx+p6wpboLiqmq2pMPH6hMEZTwhzBpIP/fcc4UtqbD/t4cY/fix44XLUZaF4q5N0O24vLyj7iMpUKLqp/hbSvKg7bgUsDjY5W+qXantNtF/8aNx2X3u0eT0o030D6C4YpFqMPU3bLVBsUHZRx99VNy8eXPXLf6qE4QP5IXf2d9ffPHFoloNtjapleIqvHZViu0Yy0Kxrf0Nd93wcwrB1P5mFV6lwu1rin3ZgwG2P7RoY2w6XqglUDz917STzHOnz3H1lzOZq3F8E5M+fjQuu889mpx+tIn+0QnFO9C3rd7e7OrMvleDldrO+hxqfG23oZoqqLFlEsruE11rirvgsgq4viWZ/y6sVvvOF/aQX9eWbtXzDIHdtp4Lz83g1gHXodgnFeF4mtYUGxR7u3A5SrhcIqalHWtZKO66EzCk/Sn+Nqfxrfq2r9tIuD4+d8Japr+uyalvKeh3RtTz6LpDVfWbqs8ucy5tv8l523cK+WMo/121H3Vd4+r3bdtiqjbW9WzOXHxE0SOnH80pfyj+psQN1hQ3WGHbg3buoL4LhHdhQPfhhx9Gq6jVZQCxfYrbdp+IQbGt2fXfGNw5UNp4LPFfuXJlsZtDdZ/k6q4O1r8BbRUSY1Bs/Ydjdcho2is4Nh7/vR+3uuSiOo7Y8cJLBxQfbI2nSjCwDnK3Swm6q07mljjv3LlTPPnkk417VytJKXebNig2u3755ZfLu1H+Uc8DKP5CsaGKKkqSXsX4Vu1HXVBcnXRaUePUqVO9fK4NiufkI0psAYrrKuXMW0DxElCsGO4U2/h+y1Mc+zJjVoLLKpKWkixVJ5/T+FadzC05+xaAbZOu8LtwMtb09+r2ibEJrF0n30Wma2vF0JbNJ0+cOLHrhUBN5xFOfH0LR3/otelhXR+XtbO7RvbJ8WKhmD8q/qbavdpuTv6hxo1V+1EqFMcKK6FfhXdXm7bxbIPiOfmIksdy+tEm+keXHwHFQPFCAaA4bgybVmnqChr2/SqgZJXJPKwmVZNobLtC3wHF31AZvpxnmaVOIRRbX21bK4ZWWE2AXefh+6GHu+L4sqY2WDcotk/XciolaTe1yZnMV2F/Oe1+yPGt0o+6rr9d49jypPCuRdsWm2G72NaksV2e5uQjXfra9zn9CCiuKw4UA8WKH86yjRJcCBrxS7+KpL/KZB6uObRk61v/xZYuGHg2bWPocBtWt5SHYqu/Ux+ErT5k2nQesW0dHTCA4l8VBw9Of3mRCu2r9KOuRNAExe4jR44cadxi0x44b9rG0/2nCsWxB7Gn7CNd+gLF/fKRkreAYqBY8cNZtgGK65dVCRr2K7VdyqRilck8XG/vZ23LIZrW86b8Xdk+MRcUp5yH7/UNFAPF6wrgXZViG4cv0wnH5M/nNG3jmQLFU/YR5TopeWsV8VmdlOVsl5I/ch0XKAaKFT+cZRsluAzhlKuCzlxBY1XjWxUUt70cJ1a5svNrguJlX7SzDBTbsXy/bvt9yrGtPZXiL8LWpi1/WpUfKUkgBsWhL7Vtsdm2rWgTFM/NR1SNu3ZNAorjSiq6AMVrguKxb6M0tvHZuk9/IMkuUdMbA5Ug0tQGKK4rowSNqUGx79YQ7uAQvkY8XMfo2xXaPtxNf29aU+y7wfiaSq96ha9r79pasXpFQhvtOo/wKf/qmzZDWImNizXFn5fS7927tzWkDOkf6vjGBsWhv9g5NG2xad+Fa9rDbTyboNgnfw6JU/cRJZ8peUu1002cNHb50RZvtGueUeTcBH3s2yiNaXyW0N94443FNlSexLtmx0pACdtYcOl6w5a1V9/I1uVsKTCZEtTmMr6c/hZe52pStu/CB92atits+rsnYj9GOGELn563W8IXL14s1yd7Ule2VgzHHj4U2HUe4bhOnz5ddnPp0qXC9v/uGpefg+8KkNvXfGxd/qbavdpuE/13VX6kxNdwVwlvX926tOo/4YN5TduK+guuYsWROfmIqnEuP9pE/+jK00BxgxUqb7RTDNjbrHMbpabtbtrGO/bxhVW7FN3b2gLFdXVU2FDbpQTdIZN5LpvK3U9sD9bcx1hXf4q/qXaltkuxv65kad+rx1XbrWJ8m+ZHc/IRxRdz+tEq7C+nHw0xPpZPtEBxrttQ69xGqW27myaHG/v4ut74pQSSWBvlNpT9btPWJOYOaqp+ufxtWXsY6++qb+sa6zi7xqX4mwqTartN9N9N9KO5+EiXD9n3Of1oE/2jK78BxWuA4nVtERODx3D9VpPDjX18FgRit+CUANLWRgkuBI24gquAkk1M5n1teEq/V/xNtSu13Sb6L340Ja9IH2tOP9pE/wCKKzanBlNrlyu4rGuLmOqrpP3Uu4ByzONbFRCrM26CBlCcnrb4RUyBnMlcjeOb6L9BGcN3AAAcWklEQVS58hZWPE4FcvrRJvoHUDwwFK9zG6W27W6a3Hus41N3w+gTtpTgQtAAivvYGL/9PwUUf1NhV223if4LFM/b63L60Sb6B1A8MBSve4uYpu1u7An02GeM42t7z33OcKcEF4IGUJzT5ja5L8XfVNhV222i/wLF8/aynH60if4BFA8MxUNsoxTuPuHb3ThoVrdaGsv4wstU3aPYv7Nz8a15cmwZpQQXgsb4oFhZJ5+SFqtr8c0uLly4UPhae+trVQ97poyzra16Z0XZxSWclNoxw71j+4xX8TcVdtV2m+i/KhTjR3Vr3jQ/2kT/AIoHhuI+SST3bw02w0Sfu/919ZfrPJQkTdDYTCi2sw73RB07FI9pn/GmOKD4mwq7artN9N8xQTF+dLiMI2OdXG6ifwDFQPFCgVwwuS74bTpOrvNQkjRBY1pQHL6kwkYeVnz9JTB+Rn4Xxe+sHD16tPA32dnv3n777fLf9qlCcdtx/OFQe3GHj+HEiRPF2bNny39XH3xdZl/x6lUZ+z7jNl7F31TYVdttov/mgGL86HAR3o0MX+RjscHetmqwe/jw4fJ/sZfymO3Zd9bO7rbYx2OM+4P7sf9eya05/WgT/QMoBooVP9vINkpwIWhMC4rD5QGe2MM3ynmiC5cTxZZPWCK7evVqcfLkycImYU1twrfFeWILl1/47xzOwzfpmbLL7CtevSJj32fcx6v4mwq7artN9N8cUIwfvVLYRPbMmTOl+cb8NAWKrY9wGVIfv8/pR5voH51QfO/eve0HDx4U+/fvbwWjR48eld/v2bNnre3sYEON79ChQ7tmixtJjjM+aQsuO/bfeYZD2Z/ib0P6R+7xqf7WtBbS4ND68E+4s4r9LazohBe9CXjDKpABrye1tuPY8avrdsN/h2MK+/TxLLPOc+z7jIdQ3OVvufPMnPxD8TfTDz/6AmIvX768gNrOIL/TYBP9aBP9o8uPeHlHg7fk3KdYcUjarF8BZcbNTDp+XVZRqctR4aoukbDRewW3uo+3L59oqwL7Wt1Lly7tqvS0HScViqsKV5dXhA+eVh8AtN+OeZ/x8NwUf1PtSm23if6LH31hdfhRUezdu7czsapvHLWOuvpT/VJtN4T/AsVAcafTzLWBkqSHcEo75piDxqrG1zeZO9zG1veFFWQbf1vFtgq1VnU6depUuY7Qll90HScFis+fP79Yt7yMn411n/HYuSj+ptq92m4T/Rc/SvekTfWjTfSPLrgHihOheGxbtlQfiFC3KhvbeYSXIbZNXHqY6/6FkqQJGnEdVwEluZK5+4BXUA2S33333eLKlSsLAFXWFPve3mGFOYTi2HFSlk9Y29R9xatXY4z7jDd5nuJvql2p7TbRf/Gj98u7OuHuMV3ZYFP9aBP9AyiueIMaTJuWT4xp66Pq3sN2m/Wjjz4qbt682RUDyvVTd+7cKZ588snWbdrWva+p35buejV15wkKDZQkTdAYJxR/8MEHuwbmywrCpQS2PMJA2NcWVve/DpOm7wBhoBuzef9tFYRtENXjqJVir16Hu0/4kg7BfMsmY9xnHCge9k5PChTjR19Y66b6EfmtHq2oFCdWise09VH1gR+rGofVsLbEOqbz8HE65J8+fXrx1H/1HJq2CvJqnv321q1biwck27a7AorrFpIyaeyacXvv6po1NZmrwEi7cSmg+NuQ9qfY8xTGhx+Ny+5zjyanHwHFQLG8VjNWKR771kdWJeuq/JoJjPU8DNRv3Lixayusqsk2bRXkT/KHlbaubW+U4ELQiId0FQ5S9COZ506f4+pP8TfVrtR2KfYHFI/LXhhNXIGcfrSJ/tHl51SKEyrFY92yJVzzqKyjGuN52Jg+/vjjcimHwb3vDxtenratsByKqzsNhGusq9v0KMGFoAEUk5zzKKD4mwq7artN9F8ml3nsday95PSjTfQPoLhi2WowjVWKx771kS8/6ALjsZ1HdW10ExTbpWzaCqsJiquBLVyrrAQXggZQPNbkOLVxKf6WEp+7kpvroy7fUfqbwviA4ql5Rtp4c/oR+a2u/dbDhw+379+/Xxw4cKD1yuQOBmp/Nqihxrdv377F2tSpbNnStWn5GM8jBrp23at7srZthRWD4q7triy47Nh/Z0Qayv6UJD2kf+QeX+hvnReFBpNTQPE3NS+o7ebkH4q/mS740eRcI2nAOf1oE/2jy4+A4gZzrAaXMW7ZUn3pQPha2+q+rH6aYzyP6iVoqhRXzzfccqsKxdZn13ZXSnAhaMQdZBVQMmQy98li9Wxtjfrx48fLt+F13YGJvQSkaWKnbp2YlC0jjW1M9rpqZUeavsfq+r3ib6pdqe020X/xoy5LTP9+rn60if7RCcU7wXl7024vdYli31eXT4x1y5bqbgyeuKtLEjwMjPU8wjDVtnyiacutI0eOlHtT+ppi769tuyvlNpT1g3/Uk0gKlKj6DXnbN3YHJTV1xqDY+ghhutom9RjLtA+fIVjm97l+o/ibaldqu030X/wol8Xu7meOfrSJ/tHFfzxo1+A/TfsUr8bdVtOr7a3qjryaI0y7VyVJEzTi13gVUDLWZF5dq19d7uM7nvgE7OjRo+VLQuzfVil+++23Fy8Nabq74yqHlWX7va2Bv3jxYvm1fXfixIni7Nmz5b+re3nn2H5wlR6t+JtqV2q7TfRf/Gj30jv8qN2r1aJFF0za96pfqu2G8F+gGCheZR4cdd9Kkh7CKVOCy5zGN4Vkbsso7H++/EF5M54tX/DdVGLVZK8kV5c/OVQbhPvvHJq9rY+ja/tBu8Ny6dKlwt/SN4RjKv6mJku13Zz8Q4US/OitcuLodw3xI6DYFVDiBlA8YygeIvFN6ZhKkt7EpKomX6Vdin5jSOah/dqLYGwtblgpdiiuLtOx3zUBb/gbX/tuMNu2xWDK66LDPn381Qdux3DrV/E3JWlt6qRR8beh73DG1ubjR3mzYk4/SonPqv3lbDfE+IBioDivx06oNyW4DOGUm5r0xwDFMditLp8I9wW3a+XLJ9qqwP6Aq1Vrbe27V3ibthhcBoqrrhcurwj3AR/KRRV/A4rjVydFF/zoCw3DSnH1le7VZ2+srU8uN8mPyG91fwOKgeKhcuTgx1WSNEGjX5JO0W8qyTxUJHxAr1qxNfsKk7FVb0+dOlVcv369hOK2LQZTobhr+0EqxQdb400KdI69EoYffVYucVoGijfNj1Lic067V/1tiPEBxRsKxTmfgvcdIarbT/nfLdDY65sNEPxWcvW/h1jrCBTXjV8NVmq7lKA2hWT+ySefFFeuXFk8OKesKXbbDivMIRR71TjcYjAFiq1t1/aDrCkGitdRhWjbxSW844IfLX81lLy1ivgMFFeumSpy7nYpSTX3RRsySS/vMtovc0Jxk5PG/h5bn9m1/6t2RumtlOAypP0p9jyn8Q3pb2oyN8C1XV2s2uuf6q1Z+7uBbrVSbH/331ZB2L6zZRgG3JcvXy7OnDlT+33YX2y8ObYfTPci/ReKv80pfwzlv/gRfqT60Zzyh+Jvii68vKOlUjzkJug2rKYtltQtZjxxhts6xbaPsmNZJdcSvj3V/s4770S3cgvH4yAQ+1t17P/+7/9e/OVf/uUoK8W80W63AyhBw36htrO26hsBh/Y3He+m1XIMSyc8JnT5m2pXarsU+8uVVFflH+r48KPV+Occ/WgT/aPLj4DikUJx2xZL6hYzDsX+9G+4hjFc/xg6u1WybC9Uq1SFn9h4mtZs+e+8stW0ZCL8+1DLJ7qSNEEj7iCrgBKSef5kbj7ftU4y/1HjPVo86PI31a7Udpvov/hRfoueqx9ton90QjFvtGtO+kPdhootbQjXDFZvyzbdVrUzq76e1t8W9+yzzy6egg9fYWnHsRcPhJ/Yrdq28UwJipXX7bK5ed1HUqBE1W8of8ufQukxpgDLJ+J2ofpHVzL3CjV+NG//y+lHplRu+1PtVGk3xPh40K6lUjxUcKlu+eRD9C2WUqE43GYqBsXWv/Vp7V5++eVyb9bwE4P08FXMsbWT3mfbw3VjqBQDxbsdQIVdtV1KUBvK3+adQsdzdjmT+SrsT0nS6nHVdin+oY4PPxqPza9iJDn9aBX2p9qp0m6I8QHFI4XitlueqVBc3RbKHuQ5cuTIrv1SbdmEfZ544onyYaDwQ6X4V8XBg5vz9LoSrFaR9Enmq0ih4+kzZzJfhf3ltPshx4cfjcfmVzGSnH40BHTaMYf0jy4/B4pHCMU2pLYtllKh2LdKa1pTbMfz18Y27QQx1zXFVIp3O4AarNR2KUGXZL6KFDqePnMm81XYX1eyTEnmQ44PPxqPza9iJDn9KCU+z8U/us4DKB4pFNuwmrZYWgaKfQuppu2jrBr83HPP1dYTh/K07TQRg+kpPGgHFAPFq0hc9FlXIGcyHxI6u5JqCjyvAkqA4nl7X04/WoX9jd0/usYHFI8Yivu6dtveq9W+27Zi6zuOsf5eCS4EjfjVWwWUkMzH6il5xqX4m2pXartN9F/8KI+9jrWXnH60if4BFFcsWw2m1m7qwUWFYl86ET6QN9aAkHNcSnAhaADFOW1uk/tS/C0lPnclN9d6056un3re2mQfUc49px+R3+qKUymecaVYcbBNbqMEF4IGULzJPpLz3BV/A4r7+dscijk5bW6OfeX0I/JbBIp3NlPfVt84pczMVxHUhhofm6DPMaT83zkpLxOw1kPZn+Jvcxof/oa/zSl/DOW/+BF+pPrRnPKH4m+KLrzRrqVSbMGFz7wV6HrDFkGjX+UqRT/8bd6+ZmfX5W9K0rJ+1HYp9pcrqQ49PvwIP8I/ls9bLJ9ogWIlSFqbuaxZU9aiqc6mtpuTfoq9qLqo7dBv+eDnvxzCf3/3u98Vf/VXf1X8y7/8S/nsQttniPFhf/3sCv3Qb8j4gv0tb39AMVBcKqCuRVOdTW0H1C3vvATdZpQcu/398Ic/LL7//e8XV65cKb7zne8AxX9SQL1uajviC/ElpXKv2pXaDvubnv0BxUAxUNyKJPO5E0AlO36hh6jEPv7448Uf/vCH4rHHHit+//vfA8VAcasNqBCWux1QNz2oS5kEcH3r1xcoBoqBYqB4oQBJtV8SVPS7evVqYa9a/+Mf/1h85StfKSvGbdXiIaBdOQ/uVEz3TgXXd/V+jn9M0z+AYqAYKAaKgeKDB9dWqfMqsR+wq1oMFNcvDVAH1AGd04TOsVeygWKgGCgGioHiNUFxWCXev39/8eDBg85qMVAMFKuTgNztuL3eb/KBftPTDygGioFioBgoXhMUW1X4q1/9amHVYnvj5J/92Z+V25T9+te/LtcYxz5AMVCcG3bV/oC66UHd2CuxYx8fUAwUA8VAMVC8Bih+++23ixdeeKG4fv16+f++BeK//uu/FhcuXCj+7d/+rfiLv/iLmjUCxUCxCrG52wHFQHEKxM7B/oBioBgoBoqB4jVAcWhm6haIQAlQsmlQknK++Af+kWIvCrRv3bt3b9vWtdn6trbPo0ePyq/37Nmz1nZ2MMZXl1y9Hin6HTp0qNixB65vRQHsbz32t2nxRfG3FP/dNP2U80W/eDhfRf5Qrod6XLUd15frawqo9qK0o1LcgIDKjMJ/Opfbm7zRLm4Mc7m+dnZ79+5tnfSodq+2s4OhX11yKsVxM1TtSm2H/fXTGf3QzxRQ/S13uyHsDygGiksF1CQ9B6NPcfIhnJLxNXP7nOxPmYRif0BJSjyYk38ok3j8A//I7R9AMVAMFLfWTql0xuRRky9JqzlpAcXxCroCQ9hfPxhCP/RzBbiTt9sWgGKgGCgGihcKqMlSbQcUA8W5Kzkp/WF//eAP/dAvxd/UvKC2G8L+gGKgGCgGioFidp/Y5QVjTlopSXqIpMr4mgOqaldqO64v0J7ib4pdAcVAMVAMFAPFQDFQvKMAD6LWgyG31+uaKHDlv0K/aekHFAPFQDFQDBQDxUAxUByNhEDdtKAupXJKpb1+bYFioBgoBoqBYqAYKAaKgeLPPy81yHXHAOiMJ9cxV9q3Hj58uH3//v3iwIEDrWignkTudjYoxtdvpqrqt2/fvmLHHtZqB1zf/kFDvb45g73q51zf5uur+Bv64R8plT/VL9V22B/2t2n2BxRnqBTPBUq++c1vFnfu3Omom/I1CqBADgVOnjxZ/OIXv+jsai7xhUlZ/FJzfddT9MH+sD9lMsjyiQxQzJqrfkEN/dBPCVarqFhYn9gf9of9Nc/N8A/8Y5P8AygGiksFNsnoU84XaOp/+5CkSlIlvgCdKXFXtRfiM/E5t10BxUAxUNxxAxuoA+rUJJ27HUmfpJ876af0h/1hfyn2Mof4BxQDxUAxULxQYA5BLSWIk/RJ+in2gn/0sxf0Q78UfxsiPgPFI4PiDj7jaxRAARRYuQIqvAyRtMaeVBlfs3mqdqW2w/76QTb61fUDioHilSdYDoACKDAtBYCSfrCBfujnCrD8rm4LY/YPoBgonla2ZrQogAIrV2DMSYtKLJXYUAGgc1rQOXb/BYpHCMVPP/10cerUqeLatWuN0W9ra6t47733imeeeSbaxn5rew7fvHmzsLaffvppcejQoaWT6dBjev7554tbt26V479w4UKrNuFJDj3uV155pbh+/Xo5pDfffLM4c+aMdA2GHrcPMrQjaeArbKSMJdXWm/wotZ+U01aubUp/fdvGzhUoptJJpbP/5MN6ANqnBe28vCMDFOfYfN1fK/n+++8XV69eLT788MPi9u3bjSCrQvGPfvSj4vDhw72geOgxGQx9/PHHCxC2c1cAc+hxv/XWW8Ubb7xRTkxsLMeOHSu2t7c7GWbocfsAfcynT58uz2HoTxcUf/bZZ8m2HvOjZfpRtVGvrdpf33bhuf6///f/Ft2lQHGO+OcHVo+rtrN+GV8/KEE/9FP9LXe7IfwXKB4ZFFtl8cSJE8Unn3xSjsz+7R+vlhqkWNXUKsX2CWHLk/wvf/nLslJscP3BBx8UDjYGFhcvXix/p1ZcxzYm08HeBhZqE7uMYxp3ChSPZdxe0fzoo4+iUBxWwU1/A36HLLdR+1uXzam/CaE4dmwbr2LrMT8K77hU+7HJzdmzZ1t9JjaeVJsMdQonIk1/j42ramceD2ws58+fL4dkGh09erS4e/duEZ6rTTRT4XSIpGXHVJMv44snOPTrpwv6zVc/lk9kgOKct0csiTlcPPfcc2Xiso8lwCtXrpT/9sSnQHFYKbYlFJYYvU9LiDdu3GhcguHSjGlMKVW8sYzbgUmpbpvmYxh3uHTHl+FUXcVs0peDOHzZXQn7n5+r2WqXzfk17fqNT/Ssat12bLPzJlu3yWbMj0IoDm3Mzjm809J0lyI2ntjSpqZr6z7ty5zMNy9fvlwcOXKknPRW/378+PHouLy935EIodj6sZjh1yj87+ryqpSknzP+qcdV29n1Y3z1JId+64M67G9a9gcUjwiKLbG+8847i2UCXjE08PCqqMOKA60Nv61SHELxz372s0WV2E/7tddea624jm1MKsiPbdwOu11gPIZxGxS+/PLLZXW4a8lCuNY7BllhlbPJ5qoTnabf2O9DQG87dpOt2zIc+1T9qAmK33333QVE2+/MD5944omoz1THU4Xitmsb09l0sfOoTkrs703jevbZZ6PxoClOOCADxZ+XduHL2BrSglyhBjqBTlcAKAaKswaXTZrph0nVzchvo+aC4qaqX1MSGNOYUh5+GtO4XVtl2ccYxh2D0upSGwdZn1T5ZKUKWV1QbdrEoDhmp96XT/Tajh2DSYfa3FDcpEUVituubZNOTX8P7xyFsA4U1yMZUDItKLHRMqlgUjHUpIJKcQMNrtspLbGGyyV8WA6CVhmydY12WzS2fMJvGfstUr/VHFaKvQ+vCnU9sDamMflt5yZ4D/8+lnGHD9o5OLXtGDKWcYdaNkFZuHY1tMcqFPu61zabq0Jx029s6YPB8qVLlxbV0KZjN9m6nVvMj/osn2jSotpnm3+bPuEyCQPoJ598snjhhReif//2t7/dunyiGg+oFB9sDR1qvM/dbpOKPimwq+qMfv3gGf3q+gHFI4HiptuyYYW46QGh8O/2YJ2tEw7XXxpQ+oM14QNBYfUvBp1Dj8kvTfUhJvu7L0MY87i9gudbsoVLVcY+bte+rdIbPqRl7e3hx3PnztV2gGiyOT9GbJ147DfhWGLHtt8ott71oJ2NK+xHedCuaTyhDceWXYT+HR7H/dV+r/w99OVYPGiCYgP38Fx9vEBJP9hAP/RzBbhTUbeFMfsHUDwSKG4tY6zhS0vObfsir2EISx2CcS8lGz9CgVYFxpy0bOCMD+gEOptdGP9Y3j+AYqC4VMCAuGuLszFyBOMe41VhTFNXgKS6fFIF2vvDGvaH/Q016QGKRwbFajBQ29npcftmWrdvSKok1VAB/Bf/VeN97nbkj35win7T04+Xd2SAYt740y9poR/65U7man+mPPaH/an2krsd9tcfmvBf/DenXwLFQHGpQE6jSumPpEBSSLGX3HaK/WF/2F/znRn8A//YNP9g+UQGKOb2Zr+ZKvqhX27YVfvj9mb/pI//4r+qv+Vuh//iv7mhHSgGigevFJNUSaq5k6XaH0mVpJo7qab0h/1hfyn2osY1tR32V7c/oBgoBorb7x7yoGJEH4Juv2SOfujnClAUoCigxoPc7YBioDj72lmMql9yQz/0o1LSPisDmoCm3DCk9kd8Jj5vWnymUkylmEoxleKFAmqyVNuRVEmqm5ZUU84X/8A/UuxFjbtqO+yPSjGV4p6TANXZ1HY4JUmBpECl2BVQ44bajvhCfCG+EF9S4guV4p6QSNAl6BJ0CbopQTfFXogvxJcUe1EnC2o77A/72zT7A4qB4lIBNUjmbkfQJehif0wqmFQcbDWC3HFX7Y/4THzetPgMFAPFQHE7k7D7REQfkmq/ZIl+6OcK8CBl3RbwD/xjKP/Yunfv3vaDBw+K/fv3t6LBo0ePyu/37Nmz1nZ2MMZXl1y9HugXN1f066cL+qGfK0B8Jj6r8SB3O/JbvziEfnX9qBRTKaZSTKV4oYBaoVHbWcdUwqiEqfaSux3216/iiH7oZwrk9ku1vyHsDygGioFioBgoPsiaztANxpy0UpL0EEmV8TUHVNWu1HZcX6A9xd8UuwKKgWKgGCgGioHiXV6gJA//AXcCuBOg2kvudkAxUAwU94RYnLKfE6Ef+qUEIZJWP3tBP/RL8Tficz97QT/0o1LcE7JJWv2cCP3Qj6TffquCSiyV2NywpvZHfCY+b1p8BoqBYpZPsHyC5RMsn2D5xI4Ce/fubY0GKkyq7YBOoHPToDPlfIfwD6AYKAaKgWKgGCgGioHiaCTkTgV3KtRJXu52QHEDnOCUOGVuZ1P7G8Ipxz6TZnzNsyjVrtR22B+VxBR/U+1KbYf9YX+bZn9bDx8+3L5//35x4MCBtd42SnFKxtcPitEP/VR/y93OlMf+sL/cdqX2h/31hzr8F/9V/S13uyH8FyjOsHyCoEHQyB0M1P6GCBoplQPGB5Sk2Itq92o77A/7w/5a650ULSrysKY4AxSzvKMfFKMf+qmQk7sdt4f7QxP+i//m9ku1P/wX/8096QGKgeJSATUI5W5HUCOoYX/tlRygE+jMHXfV/ojPxOdNi89AMVAMFLczSQGUACUqRORuB5QAJZsGJSnni3/gHyn2osTn/w/JwMqa9zVJrQAAAABJRU5ErkJggg==;" vertex="1" parent="1">
          <mxGeometry x="1040" y="-130" width="709" height="538" as="geometry" />
        </mxCell>
      </root>
    </mxGraphModel>
  </diagram>
</mxfile>
